<svg xmlns="http://www.w3.org/2000/svg" viewBox="0 0 64 64">
    <g>
        <path d="M25,49a5.82,5.82,0,0,1,.22-1.28,1.91,1.91,0,0,1,.9-1l3.57-1.34a1.07,1.07,0,0,0,.31-.83l-.48-7.94L17,40.36a.36.36,0,0,1-.47-.32c-.09-1-.08-1.72.72-2.31L29.27,29a.44.44,0,0,0,.16-.33c.06-1.3.34-8.49.54-10a6,6,0,0,1,1.12-3.29,1.15,1.15,0,0,1,1.62,0,6.08,6.08,0,0,1,1.15,3.28c.21,1.55.55,8.74.62,10a.4.4,0,0,0,.16.32l12.14,8.64c.8.58.82,1.31.73,2.3a.35.35,0,0,1-.46.32L34.5,36.62l-.41,8a1,1,0,0,0,.31.82L38,46.7a2,2,0,0,1,.9,1,6.64,6.64,0,0,1,.23,1.28Z" fill="white"/>
    </g>
</svg>