<svg xmlns="http://www.w3.org/2000/svg" height="100" width="100" viewBox="0 0 100 100">
    <g>
        <path d="M 35.9615 83.9537 A 11.64 11.64 90 0 1 36.4015 81.3937 A 3.82 3.82 90 0 1 38.2015 79.3937 L 45.3415 76.7137 A 2.14 2.14 90 0 0 45.9615 75.0537 L 45.0015 59.1737 L 19.9615 66.6737 A 0.72 0.72 90 0 1 19.0215 66.0337 C 18.8415 64.0337 18.8615 62.5937 20.4615 61.4137 L 44.5015 43.9537 A 0.88 0.88 90 0 0 44.8215 43.2937 C 44.9415 40.6937 45.5015 26.3137 45.9015 23.2937 A 12 12 90 0 1 48.1415 16.7137 A 2.3 2.3 90 0 1 51.3815 16.7137 A 12.16 12.16 90 0 1 53.6815 23.2737 C 54.1015 26.3737 54.7815 40.7537 54.9215 43.2737 A 0.8 0.8 90 0 0 55.2415 43.9137 L 79.5215 61.1937 C 81.1215 62.3537 81.1615 63.8137 80.9815 65.7937 A 0.7 0.7 90 0 1 80.0615 66.4337 L 54.9615 59.1937 L 54.1415 75.1937 A 2 2 90 0 0 54.7615 76.8337 L 61.9615 79.3537 A 4 4 90 0 1 63.7615 81.3537 A 13.28 13.28 90 0 1 64.2215 83.9137 Z" fill="white" stroke="black" stroke-width="1"/>
    </g>
</svg>